<?xml version="1.0" encoding="UTF-8" standalone="no"?>
<!-- Created with Inkscape (http://www.inkscape.org/) -->

<svg
   width="132.96815mm"
   height="177.08986mm"
   viewBox="0 0 132.96815 177.08986"
   version="1.1"
   id="svg1"
   xml:space="preserve"
   xmlns="http://www.w3.org/2000/svg"
   xmlns:svg="http://www.w3.org/2000/svg"><defs
     id="defs1" /><g
     id="layer1"
     transform="translate(249.17925,31.656644)"
     style="fill:#000000"><path
       style="fill:#000000"
       d="m -154.79728,144.77176 v -0.66146 l 0.13345,0.33073 c 0.0734,0.1819 0.0734,0.47956 0,0.66146 l -0.13345,0.33073 z m 0.0878,-2.84427 c 0.0668,-0.83675 0.18664,-4.31933 0.26636,-7.73907 0.0797,-3.41973 0.32228,-12.40895 0.53905,-19.97604 0.21677,-7.56708 0.50926,-18.223165 0.64998,-23.680197 0.14072,-5.457032 0.37488,-13.850938 0.52037,-18.653126 0.14549,-4.802187 0.32403,-10.794135 0.39676,-13.315439 l 0.13224,-4.584189 -0.19267,0.08645 c -0.74542,0.334463 -3.23914,1.891307 -3.4434,2.149732 l -0.25105,0.317612 -0.3039,12.303126 c -0.16715,6.766719 -0.41892,16.946563 -0.5595,22.62188 -0.14058,5.675305 -0.38215,15.795611 -0.53684,22.489571 -0.15468,6.69396 -0.32935,12.64708 -0.38814,13.22917 -0.0588,0.58208 -0.12917,2.7252 -0.15639,4.7625 -0.0864,6.46605 -0.17745,4.47294 -1.43291,-31.35313 -0.22183,-6.330151 -0.52581,-14.664522 -0.67551,-18.520824 -0.14971,-3.856302 -0.37916,-10.506724 -0.50989,-14.778715 -0.13074,-4.271991 -0.29046,-7.820011 -0.35494,-7.884489 -0.0645,-0.06448 -1.20655,0.543301 -2.53794,1.350619 l -2.4207,1.467852 -0.17005,-0.46253 c -0.0935,-0.254391 -1.76178,-4.262402 -3.70723,-8.906691 -1.94546,-4.644289 -3.48375,-8.573351 -3.41844,-8.73125 0.12869,-0.311084 6.50311,-7.563131 6.64786,-7.563131 0.0935,0 -0.21729,1.335295 -1.18866,5.10736 l -0.59981,2.329235 0.32443,0.713474 c 0.69558,1.529656 4.34286,7.514298 4.65175,7.632831 l 0.32671,0.125372 12.00282,-4.810892 c 6.60154,-2.64599 12.30047,-4.964954 12.66427,-5.153253 l 0.66146,-0.342361 -0.66146,-0.139181 c -0.3638,-0.07655 -2.50416,-0.272535 -4.75634,-0.435523 -3.95026,-0.285875 -5.44194,-0.526712 -3.29141,-0.531408 0.56996,-0.0012 5.79879,-0.237609 11.61962,-0.525254 5.82084,-0.287645 10.73217,-0.524751 10.91407,-0.526903 l 0.33073,-0.0039 v -2.116667 -2.116667 h 1.24354 1.24354 l -0.25135,-0.237188 c -0.13825,-0.130454 -2.21589,-1.241399 -4.61698,-2.468767 l -4.36563,-2.23158 -2.38125,-0.572194 c -2.2748,-0.546616 -4.41,-0.842577 -12.7,-1.760355 -2.03729,-0.225546 -3.97206,-0.470252 -4.29948,-0.543791 l -0.59531,-0.133707 v 2.650875 c 0,1.457981 -0.0417,2.650874 -0.0927,2.650874 -0.051,0 -2.28339,-1.064274 -4.96093,-2.365053 l -4.86827,-2.365054 2.44646,-0.08234 2.44646,-0.08234 -0.99125,-1.133478 -0.99125,-1.133479 -16.12034,0.07514 -16.12033,0.07514 1.17138,0.79375 1.17138,0.79375 10.81749,0.132292 10.81751,0.132292 -5.60479,1.964222 c -3.08264,1.080321 -5.66559,2.062587 -5.73989,2.182812 l -0.1351,0.218591 h 4.03597 4.03596 l -5.14245,3.141841 -5.14246,3.141841 -2.27654,5.655555 c -2.1095,5.240538 -5.32689,13.184942 -11.34488,28.012847 -1.32886,3.274219 -3.42741,8.46984 -4.66344,11.545824 l -2.24733,5.592699 1.58414,2.466254 1.58414,2.46626 0.2993,-0.78292 c 0.16461,-0.4306 0.75705,-2.0926 1.31652,-3.693325 0.55947,-1.600729 2.22722,-6.303698 3.70611,-10.451042 1.47888,-4.147343 3.40279,-9.564687 4.27535,-12.038542 3.38596,-9.599825 4.8415,-13.591918 4.92518,-13.508244 0.0479,0.04789 -0.28559,1.4995 -0.74106,3.225788 -0.45548,1.726289 -1.04785,3.972144 -1.31637,4.99079 -0.26852,1.018645 -0.98135,3.757083 -1.58405,6.085416 -2.13767,8.258062 -2.95666,11.41204 -3.71004,14.287501 -0.4194,1.600729 -1.31358,5.053542 -1.98707,7.672917 -0.67348,2.619371 -1.45655,5.632969 -1.74014,6.696879 l -0.51561,1.934379 0.18098,0.31458 c 0.7951,1.381946 3.3576,5.209826 3.43549,5.131936 0.0539,-0.0539 0.3333,-1.21934 0.62097,-2.58994 0.28767,-1.3706 0.76943,-3.623096 1.07057,-5.005545 0.30115,-1.38245 0.65605,-3.049318 0.78867,-3.704168 0.13262,-0.65484 0.48923,-2.321715 0.79247,-3.704163 0.30324,-1.382448 0.78006,-3.644636 1.05961,-5.027084 0.27955,-1.382447 0.75455,-3.644635 1.05556,-5.027083 0.63994,-2.938996 1.32127,-6.096998 1.59834,-7.408333 l 0.19566,-0.926042 0.0304,0.559199 c 0.0167,0.30756 -0.079,1.140998 -0.21267,1.852084 -0.1337,0.711086 -0.31771,2.06679 -0.40891,3.012675 -0.0912,0.945886 -0.27296,2.434167 -0.4039,3.307292 -0.23032,1.53581 -0.61369,4.354102 -1.45764,10.715625 -0.86907,6.550968 -1.22838,9.235747 -1.59342,11.906243 -0.20887,1.52797 -0.45515,3.50426 -0.5473,4.39176 l -0.16753,1.61362 5.62548,8.70513 c 3.094,4.78781 6.18191,9.53855 6.86201,10.5572 0.6801,1.01865 1.3346,2.03068 1.45445,2.24896 l 0.21789,0.39687 -0.26487,-0.26458 c -0.14568,-0.14552 -1.98886,-2.40771 -4.09595,-5.02708 -2.1071,-2.61938 -7.85754,-9.76313 -12.77879,-15.875 -4.92124,-6.11188 -9.78756,-12.157435 -10.81405,-13.434575 l -1.86635,-2.322068 -1.46682,0.14313 c -0.80676,0.0787 -4.38386,0.31958 -7.94912,0.53522 -3.56526,0.21565 -11.3499,0.694178 -17.2992,1.063418 -5.9493,0.36923 -10.86166,0.62658 -10.91636,0.57188 -0.0547,-0.0547 0.94338,-0.30306 2.21795,-0.55192 1.27457,-0.24886 7.37756,-1.511078 13.56219,-2.804918 6.18464,-1.293849 13.44745,-2.80847 16.13959,-3.365828 l 4.89479,-1.013379 2.02803,-6.211521 c 1.9291,-5.908483 4.20776,-12.965557 9.35274,-28.965688 1.26342,-3.929062 2.75685,-8.5725 3.31872,-10.31875 0.56187,-1.74625 1.38364,-4.301268 1.82615,-5.677817 0.44251,-1.376549 0.80457,-2.645151 0.80457,-2.819114 v -0.316297 l -5.75469,-4.188571 c -3.16508,-2.303714 -7.16997,-5.232066 -8.89976,-6.507449 l -3.14506,-2.318876 1.29298,0.01 c 0.71114,0.005 7.72236,0.1737 15.58048,0.37425 7.85812,0.20054 14.33131,0.32107 14.38486,0.26783 0.15147,-0.15057 1.86841,0.19631 -35.28694,-7.12912 -10.04094,-1.97964 -19.55567,-3.86215 -21.14384,-4.1833599 l -2.8876,-0.58402 -6.19272,-15.21354 c -3.406,-8.3674501 -7.13348,-17.5288301 -8.28329,-20.3586301 -1.14981,-2.8298 -2.04418,-5.19148 -1.98748,-5.24818 0.0567,-0.0567 0.23685,0.14683 0.40033,0.4523 0.35251,0.65866 21.15759,32.8750101 21.40536,33.1458701 0.0937,0.10238 3.32197,0.856 7.17402,1.67472 3.85206,0.81871 7.09609,1.54564 7.20896,1.6154 0.54496,0.33681 -0.26651,-1.3458 -4.29231,-8.90023 -1.12445,-2.11005 -3.3864,-6.3963001 -5.02655,-9.5250001 -1.64015,-3.1287 -3.27859,-6.22432 -3.64098,-6.87916 l -0.6589,-1.19063 0.52502,0.52917 c 0.28876,0.29104 5.38183,6.60135 11.31793,14.0229101 5.9361,7.42157003 10.8801,13.59314 10.98667,13.71461 0.10656,0.12146 2.4399,0.68965 5.18519,1.26262 2.74529,0.57298 5.37839,1.14861 5.85134,1.27918 l 0.85989,0.2374 v -0.2441 c 0,-0.13425 -1.05777,-2.05942 -2.35059,-4.27815 -8.29458,-14.23501 -10.57574,-18.2569301 -10.07294,-17.7596101 0.31247,0.30906 5.11145,5.8380601 10.66439,12.28666013 l 10.09626,11.72471987 0.79238,0.18739 c 0.43581,0.10307 3.76133,0.81375 7.39005,1.57928 l 6.59769,1.39188 3.57866,-0.41101 3.57866,-0.41101 0.53928,-0.65529 c 0.2966,-0.36042 3.26221,-4.0041199 6.59024,-8.0971199 3.32802,-4.093 6.09783,-7.44182 6.15511,-7.44182 0.12269,0 0.17442,-0.12431 -3.43646,8.25794 -1.54907,3.59598 -2.81649,6.6632499 -2.81649,6.8161499 v 0.278 l 0.99219,-0.14304 c 0.5457,-0.0787 4.36722,-0.55967 8.49226,-1.06888 l 7.50008,-0.92583 7.31884,-6.6733199 c 4.02537,-3.67031997 7.52645,-6.83693 7.78019,-7.03691 l 0.46134,-0.3636 -2.44797,4.34527 c -1.34638,2.38991 -3.93426,6.97305 -5.75085,10.1847599 l -3.30288,5.83948 -3.70858,0.44134 c -15.57439,1.85344 -24.46542,2.96625 -24.57501,3.07584 -0.0709,0.0709 10.16088,1.85424 22.7374,3.962874 l 22.86638,3.833883 -0.005,1.058334 c -0.002,0.582083 -0.17964,2.606146 -0.39363,4.497917 -0.21399,1.891771 -0.39026,3.63677 -0.39171,3.877776 l -0.003,0.438193 -1.32292,0.181947 c -0.7276,0.100072 -1.33138,0.200541 -1.34172,0.223266 -0.0103,0.02273 -0.11011,1.083661 -0.2217,2.357635 -0.11159,1.273975 -0.27466,2.388082 -0.36237,2.475793 -0.0877,0.08771 -4.95881,1.019084 -10.82465,2.069715 l -10.66518,1.91024 -2.01901,1.237048 -2.01901,1.237047 -0.29276,2.975878 c -0.4519,4.593528 -1.06744,11.12401 -1.36533,14.485254 -0.14831,1.67349 -0.44286,4.888177 -0.65456,7.14375 -0.7181,7.651228 -1.16903,12.558188 -1.45885,15.875001 -0.15894,1.819006 -0.45592,5.033697 -0.65994,7.143746 -0.50457,5.218426 -1.12229,11.711976 -1.59825,16.801046 -0.21776,2.32833 -0.56545,6.01927 -0.77265,8.20208 -0.20719,2.18281 -0.51006,5.51656 -0.67305,7.40833 -0.16298,1.89177 -0.46687,5.09203 -0.67532,7.11169 -0.20844,2.01966 -0.37898,4.25208 -0.37898,4.96094 v 1.28883 h -0.26053 -0.26053 z m -85.58999,-18.14394 c -0.80036,-0.188 -2.05052,-0.65223 -2.77812,-1.03161 l -1.32292,-0.6898 -1.11105,-1.14675 -1.11105,-1.14676 -0.73962,-1.5875 -0.73961,-1.5875 -10e-4,-2.65139 -0.001,-2.6514 0.85988,-1.74666 0.85988,-1.74666 1.20927,-1.11467 1.20926,-1.11466 1.63503,-0.76151 1.63502,-0.7615 1.97709,-0.30372 1.97709,-0.30372 1.44617,0.16997 c 0.79539,0.0935 2.26887,0.35709 3.2744,0.58579 l 1.82824,0.41582 -0.16535,1.22966 c -0.0909,0.67631 -0.23319,1.68223 -0.3161,2.23537 l -0.15075,1.00573 -0.30519,-0.1002 -0.30519,-0.1002 -0.13229,-1.29891 -0.13229,-1.29892 -1.19062,-0.65539 -1.19063,-0.65539 -2.4577,-0.10771 -2.4577,-0.10771 -1.23095,0.47011 -1.23095,0.4701 -1.1623,1.07137 c -1.39551,1.28634 -2.00556,2.41812 -2.44134,4.52925 l -0.32655,1.58201 0.15657,1.49803 c 0.0861,0.82391 0.40514,2.16237 0.70895,2.97437 l 0.55237,1.47634 1.10834,1.13894 1.10834,1.13894 1.23369,0.57904 c 0.67853,0.31847 1.95042,0.69446 2.82643,0.83554 l 1.59275,0.2565 1.60313,-0.2266 1.60312,-0.2266 1.45742,-0.66723 c 1.60778,-0.73606 1.62533,-0.73034 1.06753,0.34832 l -0.38989,0.75396 -1.66063,0.57141 -1.66063,0.57142 -2.38125,0.11225 -2.38125,0.11226 z m 12.17084,-0.53099 v -0.35253 l 1.25677,-0.24278 1.25677,-0.24278 0.0702,-8.46667 0.0702,-8.46667 -0.45152,-0.33073 -0.45152,-0.33073 h -0.87547 -0.87547 v -0.41046 -0.41047 l 6.15156,0.0797 6.15156,0.0797 1.04334,0.54732 c 0.57383,0.30103 1.2882,0.8753 1.5875,1.27617 l 0.54416,0.72885 v 1.80989 1.80989 l -0.79375,1.11981 -0.79375,1.11981 -1.4348,0.80645 -1.4348,0.80644 -1.86541,0.0148 -1.8654,0.0148 -0.0867,-0.43203 -0.0867,-0.43204 1.13791,0.11839 1.13791,0.11839 1.19063,-0.61239 1.19062,-0.6124 0.61261,-1.19063 0.61261,-1.19062 -0.11264,-1.27648 -0.11264,-1.27648 -0.51878,-0.7079 c -0.28532,-0.38934 -0.92703,-0.91607 -1.42601,-1.1705 l -0.90723,-0.46261 -1.89659,-4.1e-4 c -1.04312,-2.3e-4 -2.08492,0.0719 -2.3151,0.16019 l -0.41852,0.1606 v 7.89196 7.89197 l 0.2511,0.66045 0.25111,0.66045 1.2041,0.18057 1.20411,0.18056 v 0.36684 0.36683 h -4.10104 -4.10104 z m 13.49375,-0.0113 v -0.3638 l 0.79004,-0.15801 0.79004,-0.15801 0.45238,-0.52835 c 0.41842,-0.48867 6.95706,-15.03357 7.77421,-17.29337 l 0.36169,-1.00025 0.49777,0.0771 0.49776,0.0771 3.50095,8.20209 c 1.92553,4.51114 3.75672,8.69804 4.06933,9.30421 l 0.56836,1.10214 0.79978,0.17566 0.79977,0.17566 v 0.37585 0.37585 h -3.70417 -3.70416 v -0.36306 -0.36306 l 1.06845,-0.17085 1.06846,-0.17085 0.1585,-0.41304 0.15849,-0.41303 -0.90759,-2.2942 -0.90759,-2.2942 h -4.19328 -4.19329 l -0.88593,2.30037 -0.88593,2.30036 0.15037,0.39186 0.15037,0.39186 1.03761,0.1753 1.03761,0.1753 v 0.37362 0.37362 h -3.175 -3.175 z m 13.47466,-7.50755 c -0.0573,-0.59602 -3.32591,-7.83439 -3.52485,-7.80587 -0.18065,0.0259 -3.59981,7.55423 -3.59981,7.9261 0,0.043 1.60734,0.0782 3.57187,0.0782 h 3.57188 z"
       id="path1" /></g></svg>
